<svg height="19px" viewBox="-18 0 470 470.27289" width="19px" xmlns="http://www.w3.org/2000/svg">
    <path d="m97.769531 4v61.640625h-61.632812v21.496094h331.136719v-83.136719zm0 0" fill="#db785a" />
    <path d="m367.273438 91.136719h-331.136719c-2.207031 0-4-1.792969-4-4v-21.503907c0-2.207031 1.792969-4 4-4h57.632812v-57.632812c0-2.207031 1.789063-4 4-4h269.503907c2.207031 0 4 1.792969 4 4v83.136719c0 2.207031-1.792969 4-4 4zm-327.136719-8h323.136719v-75.136719h-261.496094v57.632812c0 2.207032-1.792969 4-4 4h-57.640625zm0 0" fill="#63312d" />
    <path d="m36.136719 87.136719h331.136719v379.136719h-331.136719zm0 0" fill="#d1d1d1" />
    <path d="m367.273438 470.273438h-331.136719c-2.207031 0-4-1.792969-4-4v-379.136719c0-2.207031 1.792969-4 4-4h331.136719c2.207031 0 4 1.792969 4 4v379.136719c0 2.207031-1.792969 4-4 4zm-327.136719-8h323.136719v-371.136719h-323.136719zm0 0" fill="#63312d" />
    <path d="m65.769531 4v61.640625h-61.632812v21.496094h331.136719v-83.136719zm0 0" fill="#f9a287" />
    <path d="m4.136719 65.640625h15.632812v21.503906h-15.632812zm0 0" fill="#ffc8bb" />
    <path d="m65.769531 4h269.503907v16h-269.503907zm0 0" fill="#ffc8bb" />
    <path d="m335.273438 91.136719h-331.136719c-2.207031 0-4-1.792969-4-4v-21.503907c0-2.207031 1.792969-4 4-4h57.632812v-57.632812c0-2.207031 1.789063-4 4-4h269.503907c2.207031 0 4 1.792969 4 4v83.136719c0 2.207031-1.792969 4-4 4zm-327.136719-8h323.136719v-75.136719h-261.496094v57.632812c0 2.207032-1.792969 4-4 4h-57.640625zm0 0" fill="#63312d" />
    <path d="m65.769531 4-61.632812 61.640625h61.632812zm0 0" fill="#ffc8bb" />
    <path d="m65.777344 69.640625h-61.640625c-1.617188 0-3.082031-.976563-3.695313-2.472656-.617187-1.496094-.273437-3.214844.863282-4.359375l61.632812-61.632813c1.152344-1.1523435 2.871094-1.496093 4.359375-.863281 1.496094.617188 2.472656 2.082031 2.472656 3.695312v61.632813c.007813 2.207031-1.785156 4-3.992187 4zm-51.976563-8h47.976563v-47.984375zm0 0" fill="#63312d" />
    <path d="m4.136719 87.136719h331.136719v379.136719h-331.136719zm0 0" fill="#f8f3f3" />
    <path d="m335.273438 470.273438h-331.136719c-2.207031 0-4-1.792969-4-4v-379.136719c0-2.207031 1.792969-4 4-4h331.136719c2.207031 0 4 1.792969 4 4v379.136719c0 2.207031-1.792969 4-4 4zm-327.136719-8h323.136719v-371.136719h-323.136719zm0 0" fill="#63312d" />
    <path d="m271.128906 301.234375h160v165.039063h-160zm0 0" fill="#52b8d9" />
    <path d="m431.128906 470.273438h-160c-2.207031 0-4-1.792969-4-4v-165.039063c0-2.210937 1.792969-4 4-4h160c2.207032 0 4 1.789063 4 4v165.039063c0 2.207031-1.792968 4-4 4zm-156-8h152v-157.039063h-152zm0 0" fill="#63312d" />
    <path d="m238.839844 301.234375h160v165.039063h-160zm0 0" fill="#82d9ff" />
    <path d="m254.839844 317.234375h144.007812v-16h-160.007812v165.039063h16zm0 0" fill="#caf4ff" />
    <path d="m398.839844 470.273438h-160c-2.207032 0-4-1.792969-4-4v-165.039063c0-2.210937 1.792968-4 4-4h160c2.207031 0 4 1.789063 4 4v165.039063c0 2.207031-1.785156 4-4 4zm-156-8h152v-157.039063h-152zm0 0" fill="#63312d" />
    <path d="m339.65625 354.121094-6.953125 5.359375-6.949219-5.359375-6.9375 5.359375-6.929687-5.359375-6.933594 5.359375-6.921875-5.359375v-52.886719h41.625zm0 0" fill="#f8f3f3" />
    <path d="m304.953125 363.480469c-.863281 0-1.730469-.28125-2.457031-.839844l-6.917969-5.359375c-.976563-.761719-1.546875-1.921875-1.546875-3.160156v-52.886719c0-2.210937 1.792969-4 4-4h41.632812c2.207032 0 4 1.789063 4 4v52.886719c0 1.238281-.574218 2.40625-1.550781 3.167968l-6.953125 5.359376c-1.441406 1.113281-3.457031 1.113281-4.886718 0l-4.503907-3.480469-4.503906 3.472656c-1.457031 1.121094-3.464844 1.105469-4.898437 0l-4.472657-3.464844-4.492187 3.472657c-.722656.550781-1.59375.832031-2.449219.832031zm20.808594-13.359375c.855469 0 1.726562.28125 2.445312.832031l4.503907 3.480469 2.953124-2.28125v-46.917969h-33.632812v46.925781l2.921875 2.265625 4.496094-3.472656c1.4375-1.128906 3.445312-1.113281 4.894531 0l4.480469 3.464844 4.496093-3.472657c.710938-.550781 1.574219-.824218 2.441407-.824218zm0 0" fill="#63312d" />
    <path d="m57.726562 331.234375h133.089844v89.832031h-133.089844zm0 0" fill="#f9dd9d" />
    <g fill="#63312d">
        <path d="m190.808594 425.066406h-133.082032c-2.207031 0-4-1.792968-4-4v-89.832031c0-2.210937 1.792969-4 4-4h133.089844c2.207032 0 4 1.789063 4 4v89.832031c-.007812 2.207032-1.792968 4-4.007812 4zm-129.082032-8h125.089844v-81.832031h-125.089844zm0 0" />
        <path d="m75.351562 350.511719h8v49.914062h-8zm0 0" />
        <path d="m92.816406 350.511719h8v49.914062h-8zm0 0" />
        <path d="m110.289062 350.511719h8v36.785156h-8zm0 0" />
        <path d="m127.761719 350.511719h8v49.914062h-8zm0 0" />
        <path d="m145.222656 350.511719h8v36.785156h-8zm0 0" />
        <path d="m162.695312 350.511719h8v49.914062h-8zm0 0" />
        <path d="m49.550781 137.136719h240.296875v8h-240.296875zm0 0" />
        <path d="m49.550781 175.136719h240.296875v8h-240.296875zm0 0" />
        <path d="m49.550781 213.136719h240.296875v8h-240.296875zm0 0" />
        <path d="m49.550781 251.136719h138.539063v8h-138.539063zm0 0" />
    </g>
</svg>